<svg width="251" height="263" viewBox="0 0 251 263" fill="none" xmlns="http://www.w3.org/2000/svg">
<circle cx="125.064" cy="138" r="125" fill="white"/>
<path d="M19.0637 163.8C18.7971 163.8 18.3304 163.667 17.6637 163.4C16.9971 163.267 16.6637 163 16.6637 162.6C16.6637 162.467 16.7304 162.333 16.8637 162.2C16.9971 162.067 17.0637 162 17.0637 162C17.9971 161.733 18.3971 161.6 18.2637 161.6C18.2637 161.733 18.7304 161.667 19.6637 161.4C21.9304 160.6 23.8637 159.467 25.4637 158C27.1971 156.4 28.6637 154.533 29.8637 152.4C36.1304 142 42.1304 131.467 47.8637 120.8C53.5971 110 59.3304 99.2667 65.0637 88.6C66.6637 85.8 68.1971 82.9333 69.6637 80C71.1304 77.0667 72.5971 74.1333 74.0637 71.2C74.7304 69.6 75.3971 68 76.0637 66.4C76.8637 64.8 77.7304 63.2667 78.6637 61.8C79.7304 59.9333 81.3971 58.3333 83.6637 57C86.0637 55.5333 88.3304 54.4667 90.4637 53.8H85.6637C82.9971 53.8 79.3304 54 74.6637 54.4C70.1304 54.6667 65.3304 55.2 60.2637 56C55.1971 56.8 50.6637 58 46.6637 59.6C42.7971 61.2 40.1304 63.3333 38.6637 66C37.3304 68.4 36.6637 70.7333 36.6637 73C36.6637 75.6667 37.2637 77.4667 38.4637 78.4C39.6637 79.3333 40.2637 79.9333 40.2637 80.2C40.2637 80.4667 40.0637 80.7333 39.6637 81C39.2637 81.2667 38.9304 81.4 38.6637 81.4C37.8637 81.4 36.8637 80.6 35.6637 79C34.4637 77.4 33.3304 75.6667 32.2637 73.8C31.3304 71.8 30.7304 70.4667 30.4637 69.8C30.0637 68.3333 29.8637 66.8667 29.8637 65.4C29.8637 61.8 31.0637 59.0667 33.4637 57.2C35.9971 55.2 39.0637 53.8 42.6637 53C46.2637 52.2 49.8637 51.7333 53.4637 51.6C57.1971 51.3333 60.2637 51.2 62.6637 51.2C69.3304 51.2 75.9971 51.0667 82.6637 50.8C89.3304 50.4 95.9304 50.2 102.464 50.2C108.73 50.2 114.864 50.6667 120.864 51.6C126.997 52.4 132.53 54.0667 137.464 56.6C142.397 59.1333 146.33 62.7333 149.264 67.4C152.33 72.0667 153.864 78.2 153.864 85.8C153.864 92.7333 152.53 99.8667 149.864 107.2C147.33 114.4 144.13 120.867 140.264 126.6C123.997 151 101.197 163.2 71.8637 163.2C67.3304 163.2 62.6637 162.733 57.8637 161.8C53.1971 160.867 48.7971 159.333 44.6637 157.2C43.7304 156.667 42.7304 156.267 41.6637 156C40.7304 155.6 39.7304 155.4 38.6637 155.4C36.3971 155.4 34.1304 156.133 31.8637 157.6C29.5971 158.933 27.3971 160.267 25.2637 161.6C23.1304 163.067 21.0637 163.8 19.0637 163.8ZM69.4637 160.4C79.4637 160.4 88.7971 158.467 97.4637 154.6C106.13 150.733 113.73 145.333 120.264 138.4C126.797 131.333 131.93 123.267 135.664 114.2C137.397 109.933 138.797 105.467 139.864 100.8C141.064 96.1333 141.664 91.5333 141.664 87C141.664 76.6 138.464 68.6 132.064 63C125.797 57.2667 117.53 54.4 107.264 54.4C104.73 54.4 102.064 54.6667 99.2637 55.2C96.5971 55.7333 94.3971 57 92.6637 59C90.9304 61.1333 89.2637 63.4667 87.6637 66C86.1971 68.5333 84.7304 71 83.2637 73.4C80.1971 78.7333 77.2637 84.2667 74.4637 90C71.7971 95.6 69.0637 101.133 66.2637 106.6C61.8637 115 57.5304 123.467 53.2637 132C52.3304 133.867 51.3304 135.8 50.2637 137.8C49.3304 139.667 48.3971 141.533 47.4637 143.4C47.1971 144.067 46.9304 144.8 46.6637 145.6C46.3971 146.267 46.2637 147.067 46.2637 148C46.2637 149.733 46.7971 151.2 47.8637 152.4C48.9304 153.6 50.0637 154.733 51.2637 155.8C53.7971 157.667 56.7304 158.933 60.0637 159.6C63.3971 160.133 66.5304 160.4 69.4637 160.4Z" fill="#588794"/>
<path d="M156.664 229.8C149.597 229.8 142.797 228.733 136.264 226.6C129.864 224.6 124.664 221.2 120.664 216.4C116.664 211.6 114.664 205.133 114.664 197C114.664 188.333 116.33 179.867 119.664 171.6C122.997 163.333 127.464 155.667 133.064 148.6C138.664 141.4 144.93 135.2 151.864 130C157.997 125.333 165.064 121.533 173.064 118.6C181.197 115.667 189.264 114.2 197.264 114.2C200.597 114.2 203.73 114.467 206.664 115C209.597 115.4 212.597 116.333 215.664 117.8C218.33 119 220.464 120.533 222.064 122.4C223.664 124.133 224.464 126.133 224.464 128.4C224.464 128.667 224.464 129 224.464 129.4C224.464 129.8 224.397 130.133 224.264 130.4C223.73 132.533 222.464 135 220.464 137.8C218.597 140.467 217.13 143.267 216.064 146.2C215.93 146.733 215.197 147.2 213.864 147.6C212.53 147.867 211.997 147.733 212.264 147.2C213.33 145.467 214.13 143.333 214.664 140.8C215.33 138.267 215.664 135.733 215.664 133.2C215.664 131.333 215.464 129.6 215.064 128C214.797 126.267 214.264 124.8 213.464 123.6C212.13 121.2 210.064 119.533 207.264 118.6C204.464 117.667 201.464 117.2 198.264 117.2C195.197 117.2 192.13 117.533 189.064 118.2C185.997 118.867 183.33 119.6 181.064 120.4C173.33 123.2 165.93 127.6 158.864 133.6C152.597 139.067 146.997 145.4 142.064 152.6C137.264 159.8 133.464 167.2 130.664 174.8C127.864 182.4 126.464 189.667 126.464 196.6C126.464 203.667 127.997 209.267 131.064 213.4C134.13 217.533 138.13 220.467 143.064 222.2C147.997 223.933 153.33 224.8 159.064 224.8C164.13 224.8 169.13 224.267 174.064 223.2C179.13 222.133 183.73 220.8 187.864 219.2C194.93 216.533 201.264 213.267 206.864 209.4C212.597 205.533 217.93 200.533 222.864 194.4C223.53 193.733 223.997 193.4 224.264 193.4C224.664 193.4 224.864 193.667 224.864 194.2C224.864 195.267 224.33 196.533 223.264 198C218.73 204.133 213.597 209.267 207.864 213.4C202.13 217.533 195.997 220.933 189.464 223.6C185.064 225.333 179.93 226.8 174.064 228C168.33 229.2 162.53 229.8 156.664 229.8Z" fill="#588794"/>
</svg>
